<?xml version="1.0" encoding="UTF-8"?>
<svg width="18px" height="18px" viewBox="0 0 18 18" version="1.1" xmlns="http://www.w3.org/2000/svg" xmlns:xlink="http://www.w3.org/1999/xlink">
    <title>E09FAAA1-0252-442C-A746-0640B72BF596@1x</title>
    <g id="✅-Currencies" stroke="none" stroke-width="1" fill="none" fill-rule="evenodd">
        <g id="All-Dropdowns-&amp;-Currencies" transform="translate(-417.000000, -102.000000)">
            <g id="USD" transform="translate(346.000000, 50.000000)">
                <g id="Normal-Balance" transform="translate(0.000000, 41.000000)">
                    <g id="usd" transform="translate(71.000000, 11.000000)">
                        <path d="M9,0 C4.02943725,0 0,4.02943725 0,9 C0,13.9705627 4.02943725,18 9,18 C13.9705627,18 18,13.9705627 18,9 C18,4.02943725 13.9705627,0 9,0 Z" id="Path" fill="#0EE07B"></path>
                        <path d="M12.65625,10.771875 C12.65625,12.2175 11.480625,13.177125 9.750375,13.32 L9.750375,14.619375 L8.5635,14.619375 L8.5635,13.303125 L8.557875,13.2975 C7.38225,13.1625 6.2685,12.7125 5.33475,11.9925 L6.206625,10.794375 C6.982875,11.39625 7.720875,11.79 8.6079375,11.925 L8.6079375,9.34875 C6.6110625,8.848125 5.6885625,8.1264375 5.6885625,6.6375 C5.6885625,5.214375 6.847875,4.24125 8.553375,4.111875 L8.553375,3.346875 L9.74025,3.346875 L9.74025,4.134375 L9.74025,4.134375 C10.66275,4.235625 11.5515,4.57875 12.30525,5.13 L11.54025,6.361875 C10.938375,5.923125 10.32525,5.6475 9.684,5.518125 L9.684,8.01 C11.754,8.505 12.64275,9.309375 12.64275,10.726875 L12.65625,10.771875 Z M8.6175,7.77375 L8.6175,5.45625 C7.756875,5.518125 7.3085625,5.979375 7.3085625,6.55875 C7.3085625,7.11 7.5673125,7.4655 8.6135625,7.768125 L8.6175,7.77375 Z M11.041875,10.861875 C11.041875,10.27125 10.755,9.91125 9.6913125,9.613125 L9.6913125,11.9925 C10.5463125,11.925 11.041875,11.491875 11.041875,10.861875 L11.041875,10.861875 Z" id="Shape" fill="#FFFFFF"></path>
                    </g>
                </g>
            </g>
        </g>
    </g>
</svg>