<svg width="51" height="50" viewBox="0 0 51 50" fill="none" xmlns="http://www.w3.org/2000/svg">
<g id="Group">
<path id="Vector" d="M23.2759 4.31032V8.62067H25.2874H27.2989V4.31032V-2.28882e-05H25.2874H23.2759V4.31032Z" fill="url(#paint0_radial_22_2247)"/>
<path id="Vector_2" d="M16.954 6.2931C12.0977 8.3908 8.50575 12.0402 6.23564 17.1264C5.80461 18.1034 5.45978 18.9655 5.45978 19.0805C5.45978 19.1667 6.43679 19.2529 7.61495 19.2529H9.74139L10.3161 17.9598C11.0345 16.3218 13.1897 13.5919 14.6264 12.4138C15.2299 11.9253 16.6092 11.0345 17.6437 10.4885L19.5402 9.42528V7.44252C19.5402 6.03448 19.4253 5.45976 19.1954 5.45976C18.9943 5.4885 17.9885 5.83333 16.954 6.2931Z" fill="url(#paint1_radial_22_2247)"/>
<path id="Vector_3" d="M31.3218 7.47126V9.48275L32.7011 10.1724C35.8908 11.7816 38.8218 14.6552 40.3161 17.6437L41.1494 19.2529H43.2471H45.3736L45 18.1609C43.1609 12.931 39.023 8.56321 33.7356 6.23563C32.7586 5.80459 31.8103 5.45976 31.6379 5.45976C31.4368 5.45976 31.3218 6.17815 31.3218 7.47126Z" fill="url(#paint2_radial_22_2247)"/>
<path id="Vector_4" d="M22.2701 13.046C20.0862 13.592 18.4483 14.569 16.6379 16.3506C14.2241 18.7644 12.931 21.7816 12.931 25C12.931 27.0977 12.7299 27.0115 18.2759 27.0115H23.2759V28.4483V29.8851H25.2874H27.2989V28.4483V27.0115H30.4598H33.6207L33.3621 27.6724C32.5287 29.8563 30.5747 31.7529 28.2759 32.6437C27.3563 32.9885 26.4368 33.0747 24.7989 32.9885C22.3851 32.8448 21.2069 32.3276 18.9943 30.3161L17.9023 29.3391L16.5517 30.7184L15.2011 32.0977L16.2931 33.2471C20.2299 37.3563 26.6667 38.2759 31.6667 35.4885C33.2471 34.6264 35.6322 32.1264 36.4368 30.5747C37.2989 28.8793 37.9598 26.0058 37.8736 24.4828L37.7874 23.1322L32.6149 22.9885L27.4425 22.8448L27.3563 21.3218L27.2701 19.8276H25.2586H23.2759V21.4081V22.9885H20.2586C18.592 22.9885 17.2414 22.931 17.2414 22.8448C17.2414 22.2126 18.2759 20.5172 19.2816 19.3966C21.1782 17.3276 22.3851 16.8103 25.2874 16.8103C28.1897 16.8103 29.3103 17.2414 31.3793 19.1954L32.7874 20.4885L34.0517 19.2529C34.7701 18.5632 35.3448 17.8161 35.3448 17.6437C35.3448 17.069 32.4138 14.5977 30.8621 13.9081C28.1897 12.6724 25.0575 12.3563 22.2701 13.046Z" fill="white"/>
<path id="Vector_5" d="M0 25V27.0115H4.31035H8.62069V25V22.9885H4.31035H0V25Z" fill="url(#paint3_radial_22_2247)"/>
<path id="Vector_6" d="M42.0115 24.9138L42.0977 26.8678L46.4943 26.954L50.8621 27.0402V25V22.9885H46.4081H41.9253L42.0115 24.9138Z" fill="url(#paint4_radial_22_2247)"/>
<path id="Vector_7" d="M5.6322 31.2356C5.74714 31.523 6.35059 32.8448 6.98277 34.1667C9.05174 38.4195 13.3333 42.1839 18.1322 43.9942L19.5402 44.5402V42.4425V40.3736L17.5862 39.3965C15 38.046 11.8678 34.9425 10.7471 32.5575L9.91381 30.7759H7.70116C5.7184 30.7471 5.48852 30.8046 5.6322 31.2356Z" fill="url(#paint5_radial_22_2247)"/>
<path id="Vector_8" d="M40.546 31.6667C39.2529 34.6839 35.977 38.0173 32.8448 39.5977L31.3218 40.3448V42.4425V44.5115L32.4138 44.1379C38.046 42.1552 42.3851 37.931 44.7989 32.0977L45.3736 30.7471H43.1609H40.9483L40.546 31.6667Z" fill="url(#paint6_radial_22_2247)"/>
<path id="Vector_9" d="M23.2759 45.6897V50H25.2874H27.2989V45.6897V41.3793H25.2874H23.2759V45.6897Z" fill="url(#paint7_radial_22_2247)"/>
</g>
<defs>
<radialGradient id="paint0_radial_22_2247" cx="0" cy="0" r="1" gradientUnits="userSpaceOnUse" gradientTransform="translate(25.2874 8.62067) rotate(-90) scale(8.62069 4.02299)">
<stop stop-color="#4FEA9F"/>
<stop offset="1" stop-color="#38644F"/>
<stop offset="1" stop-color="#152F22"/>
</radialGradient>
<radialGradient id="paint1_radial_22_2247" cx="0" cy="0" r="1" gradientUnits="userSpaceOnUse" gradientTransform="translate(12.5 19.2529) rotate(-90) scale(13.7931 14.0805)">
<stop stop-color="#4FEA9F"/>
<stop offset="1" stop-color="#38644F"/>
<stop offset="1" stop-color="#152F22"/>
</radialGradient>
<radialGradient id="paint2_radial_22_2247" cx="0" cy="0" r="1" gradientUnits="userSpaceOnUse" gradientTransform="translate(38.3477 19.2529) rotate(-90) scale(13.7931 14.0517)">
<stop stop-color="#4FEA9F"/>
<stop offset="1" stop-color="#38644F"/>
<stop offset="1" stop-color="#152F22"/>
</radialGradient>
<radialGradient id="paint3_radial_22_2247" cx="0" cy="0" r="1" gradientUnits="userSpaceOnUse" gradientTransform="translate(4.31035 27.0115) rotate(-90) scale(4.02299 8.62069)">
<stop stop-color="#4FEA9F"/>
<stop offset="1" stop-color="#38644F"/>
<stop offset="1" stop-color="#152F22"/>
</radialGradient>
<radialGradient id="paint4_radial_22_2247" cx="0" cy="0" r="1" gradientUnits="userSpaceOnUse" gradientTransform="translate(46.3937 27.0402) rotate(-90) scale(4.05172 8.93678)">
<stop stop-color="#4FEA9F"/>
<stop offset="1" stop-color="#38644F"/>
<stop offset="1" stop-color="#152F22"/>
</radialGradient>
<radialGradient id="paint5_radial_22_2247" cx="0" cy="0" r="1" gradientUnits="userSpaceOnUse" gradientTransform="translate(12.5688 44.5402) rotate(-90) scale(13.7706 13.9428)">
<stop stop-color="#4FEA9F"/>
<stop offset="1" stop-color="#38644F"/>
<stop offset="1" stop-color="#152F22"/>
</radialGradient>
<radialGradient id="paint6_radial_22_2247" cx="0" cy="0" r="1" gradientUnits="userSpaceOnUse" gradientTransform="translate(38.3477 44.5115) rotate(-90) scale(13.7644 14.0517)">
<stop stop-color="#4FEA9F"/>
<stop offset="1" stop-color="#38644F"/>
<stop offset="1" stop-color="#152F22"/>
</radialGradient>
<radialGradient id="paint7_radial_22_2247" cx="0" cy="0" r="1" gradientUnits="userSpaceOnUse" gradientTransform="translate(25.2874 50) rotate(-90) scale(8.62069 4.02299)">
<stop stop-color="#4FEA9F"/>
<stop offset="1" stop-color="#38644F"/>
<stop offset="1" stop-color="#152F22"/>
</radialGradient>
</defs>
</svg>
